<?xml version="1.0" encoding="UTF-8" standalone="no"?>
<!-- Created with Inkscape (http://www.inkscape.org/) -->

<svg
   version="1.1"
   id="svg2"
   width="1122.6667"
   height="793.33331"
   viewBox="0 0 1122.6667 793.33331"
   sodipodi:docname="MIXPAG.ai"
   xmlns:inkscape="http://www.inkscape.org/namespaces/inkscape"
   xmlns:sodipodi="http://sodipodi.sourceforge.net/DTD/sodipodi-0.dtd"
   xmlns="http://www.w3.org/2000/svg"
   xmlns:svg="http://www.w3.org/2000/svg">
  <defs
     id="defs6">
    <clipPath
       clipPathUnits="userSpaceOnUse"
       id="clipPath36">
      <path
         d="M 0,595 H 842 V 0 H 0 Z"
         id="path34" />
    </clipPath>
  </defs>
  <sodipodi:namedview
     id="namedview4"
     pagecolor="#ffffff"
     bordercolor="#000000"
     borderopacity="0.25"
     inkscape:showpageshadow="2"
     inkscape:pageopacity="0.0"
     inkscape:pagecheckerboard="0"
     inkscape:deskcolor="#d1d1d1" />
  <g
     id="g8"
     inkscape:groupmode="layer"
     inkscape:label="MIXPAG"
     transform="matrix(1.3333333,0,0,-1.3333333,0,793.33333)">
    <g
       id="g10"
       transform="translate(346.25,356.855)">
      <path
         d="M 0,0 H 3.703 L 14.117,-29.691 25.055,-58.359 7.977,-90.183 -7.383,-120.984 h -4.453 l 33.301,62.625 z"
         style="fill:#afcd36;fill-opacity:1;fill-rule:evenodd;stroke:none"
         id="path12" />
    </g>
    <g
       id="g14"
       transform="translate(412.8008,235.8711)">
      <path
         d="m 0,0 h -45.645 l -10.593,30.117 17.289,32.508 -11.118,29.149 16.7,29.21 h 39 L -31.957,62.82 Z"
         style="fill:#afcd36;fill-opacity:1;fill-rule:evenodd;stroke:none"
         id="path16" />
    </g>
    <g
       id="g18"
       transform="translate(294.332,367.937)">
      <path
         d="m 0,0 h -38.109 l 3.55,35.008 H 3.555 Z"
         style="fill:#afcd36;fill-opacity:1;fill-rule:evenodd;stroke:none"
         id="path20" />
    </g>
    <g
       id="g22"
       transform="translate(682.9805,191.7773)">
      <path
         d="m 0,0 h -35.977 l 3.356,33.016 H 3.352 Z"
         style="fill:#afcd36;fill-opacity:1;fill-rule:evenodd;stroke:none"
         id="path24" />
    </g>
    <g
       id="g26"
       transform="translate(334.1211,298.9141)">
      <path
         d="M 0,0 -25.805,57.941 H 9.582 L 31.043,-0.418 -2.254,-63.043 h -42.699 z"
         style="fill:#16234e;fill-opacity:1;fill-rule:evenodd;stroke:none"
         id="path28" />
    </g>
    <g
       id="g30">
      <g
         id="g32"
         clip-path="url(#clipPath36)">
        <g
           id="g38"
           transform="translate(529.9453,294.9258)">
          <path
             d="m 0,0 c -1.895,-18.652 -5.383,-31.539 -10.457,-38.629 -5.078,-7.094 -10.48,-12.301 -16.203,-15.551 -5.723,-3.25 -11.981,-4.875 -18.778,-4.875 h -23.488 l -4.472,-44.093 h -38.113 l 16.753,165.077 h 59.387 c 7.68,0 13.875,-1.55 18.582,-4.652 4.707,-3.101 8.457,-7.273 11.258,-12.445 C -2.734,39.664 -0.812,33.863 0.23,27.402 1.277,20.976 1.367,13.48 0.492,4.875 Z m -38.785,-2.254 1.156,11.375 c 0.434,4.285 0.613,7.867 0.539,10.785 -0.078,2.879 -0.551,5.133 -1.414,6.793 -0.871,1.625 -1.976,2.734 -3.32,3.324 -1.344,0.59 -3.418,0.887 -6.227,0.887 h -11.742 l -5.691,-56.062 h 12.41 c 2.511,0 4.402,0.445 5.676,1.332 1.269,0.886 2.519,1.918 3.746,3.101 1.234,1.219 2.265,3.766 3.109,7.68 0.844,3.953 1.43,7.535 1.758,10.785 M 103.824,-59.055 H 43.109 c -12.703,0 -22.703,2.992 -29.996,9.012 -7.297,5.984 -10.304,15.289 -9.031,27.848 1.07,10.523 4.949,18.906 11.637,25.113 6.687,6.238 17.961,11.039 33.816,14.437 l 20.59,4.211 c 3.18,0.738 4.918,2.621 5.219,5.578 0.269,2.657 -1.219,3.989 -4.469,3.989 H 19.469 l 3.125,30.796 h 58.719 c 10.339,0 18.449,-2.695 24.328,-8.085 5.875,-5.43 8.336,-12.852 7.375,-22.305 z M 68.93,-25.152 70.66,-8.09 48.004,-15.18 c -4.27,-1.328 -6.504,-2.953 -6.699,-4.875 -0.344,-3.398 1.183,-5.097 4.578,-5.097 z m 147.84,-31.465 c -0.75,-7.383 -1.836,-12.961 -3.25,-16.727 -1.418,-3.769 -4.012,-8.238 -7.79,-13.406 -3.773,-5.172 -8.574,-9.195 -14.41,-12.078 -5.832,-2.879 -11.996,-4.32 -18.496,-4.32 h -19.789 l 3.352,33.015 h 11.367 c 4.433,0 7.164,0.703 8.187,2.07 1.028,1.364 1.778,4.395 2.246,9.008 h -23.488 c -6.5,0 -12.179,1.555 -17.035,4.657 -4.855,3.101 -8.781,7.347 -11.785,12.664 -2.461,4.875 -4.145,10.121 -5.047,15.769 -0.91,5.613 -0.906,12.926 0.012,21.977 l 0.676,6.644 c 0.964,9.492 2.464,17.359 4.503,23.637 2.043,6.316 4.848,12.078 8.407,17.32 3.558,5.246 8.363,9.641 14.402,13.109 6.043,3.473 12.977,5.207 20.805,5.207 h 59.164 z m -35.141,31.465 5.711,56.285 h -14.403 c -2.218,0 -3.718,-0.262 -4.511,-0.778 -0.789,-0.515 -1.824,-1.586 -3.094,-3.211 -1.277,-1.664 -2.363,-4.359 -3.262,-8.125 -0.906,-3.804 -1.558,-7.683 -1.965,-11.707 l -0.902,-8.863 c -0.375,-3.73 -0.531,-7.426 -0.465,-11.156 0.067,-3.691 0.824,-6.793 2.266,-9.34 1.441,-2.512 3.516,-3.547 6.219,-3.105 z"
             style="fill:#16234e;fill-opacity:1;fill-rule:evenodd;stroke:none"
             id="path40" />
        </g>
        <g
           id="g42"
           transform="translate(280.9302,236.0937)">
          <path
             d="m 0,0 h -38.114 l 12.258,120.761 h 38.114 z"
             style="fill:#16234e;fill-opacity:1;fill-rule:evenodd;stroke:none"
             id="path44" />
        </g>
        <g
           id="g46"
           transform="translate(230.2769,235.8711)">
          <path
             d="m 0,0 h -38.336 l 7.711,75.969 c 0.481,4.726 0.547,8.308 0.196,10.672 -0.348,2.363 -3.481,3.547 -9.387,3.547 h -6.648 L -55.617,0 h -36.121 l 7.711,75.969 c 0.48,4.726 0.547,8.308 0.199,10.672 -0.351,2.363 -3.554,3.547 -9.613,3.547 h -6.426 L -109.019,0 h -38.113 l 12.281,120.984 h 106.137 c 8.273,0 15.152,-1.695 20.644,-5.093 5.488,-3.399 9.512,-7.422 12.074,-12.004 C 6.571,99.309 7.996,95.172 8.286,91.477 8.571,87.75 8.379,82.578 7.703,75.93 L 6.735,66.367 Z"
             style="fill:#16234e;fill-opacity:1;fill-rule:evenodd;stroke:none"
             id="path48" />
        </g>
      </g>
    </g>
  </g>
</svg>
